<?xml version="1.0" encoding="utf-8"?>
<svg version="1.1" xmlns:xlink="http://www.w3.org/1999/xlink" width="12px" height="12px" viewBox="298 695  12 12" xmlns="http://www.w3.org/2000/svg">
  <path d="M 304 695  C 307.36 695  310 697.64  310 701  C 310 704.36  307.36 707  304 707  C 300.64 707  298 704.36  298 701  C 298 697.64  300.64 695  304 695  Z " fill-rule="nonzero" fill="#ffffff" stroke="none" />
  <path d="M 304 695.5  C 307.08 695.5  309.5 697.92  309.5 701  C 309.5 704.08  307.08 706.5  304 706.5  C 300.92 706.5  298.5 704.08  298.5 701  C 298.5 697.92  300.92 695.5  304 695.5  Z " stroke-width="1" stroke="#797979" fill="none" />
  <path d="M 304 704  C 302.32 704  301 702.68  301 701  C 301 699.32  302.32 698  304 698  C 305.68 698  307 699.32  307 701  C 307 702.68  305.68 704  304 704  " fill-rule="nonzero" fill="#797979" stroke="none" />
</svg>