<?xml version="1.0" encoding="utf-8"?>
<svg version="1.1" xmlns:xlink="http://www.w3.org/1999/xlink" width="12px" height="12px" viewBox="298 732  12 12" xmlns="http://www.w3.org/2000/svg">
  <path d="M 304 732  C 307.36 732  310 734.64  310 738  C 310 741.36  307.36 744  304 744  C 300.64 744  298 741.36  298 738  C 298 734.64  300.64 732  304 732  Z " fill-rule="nonzero" fill="#ffffff" stroke="none" />
  <path d="M 304 732.5  C 307.08 732.5  309.5 734.92  309.5 738  C 309.5 741.08  307.08 743.5  304 743.5  C 300.92 743.5  298.5 741.08  298.5 738  C 298.5 734.92  300.92 732.5  304 732.5  Z " stroke-width="1" stroke="#797979" fill="none" />
  <path d="M 304 741  C 302.32 741  301 739.68  301 738  C 301 736.32  302.32 735  304 735  C 305.68 735  307 736.32  307 738  C 307 739.68  305.68 741  304 741  " fill-rule="nonzero" fill="#797979" stroke="none" />
</svg>