<?xml version="1.0" encoding="utf-8"?>
<svg version="1.1" xmlns:xlink="http://www.w3.org/1999/xlink" width="90px" height="22px" xmlns="http://www.w3.org/2000/svg">
  <defs>
    <mask fill="white" id="clip6">
      <path d="M 0 17  L 0 5  C 0 2.20000000000005  2.20000000000005 0  5 0  L 47 0  L 85 0  C 87.8 0  90 2.20000000000005  90 5  L 90 17  C 90 19.8  87.8 22  85 22  L 5 22  C 2.20000000000005 22  0 19.8  0 17  Z " fill-rule="evenodd" />
    </mask>
  </defs>
  <g transform="matrix(1 0 0 1 -983 -802 )">
    <path d="M 0 17  L 0 5  C 0 2.20000000000005  2.20000000000005 0  5 0  L 47 0  L 85 0  C 87.8 0  90 2.20000000000005  90 5  L 90 17  C 90 19.8  87.8 22  85 22  L 5 22  C 2.20000000000005 22  0 19.8  0 17  Z " fill-rule="nonzero" fill="#ffffff" stroke="none" transform="matrix(1 0 0 1 983 802 )" />
    <path d="M 0 17  L 0 5  C 0 2.20000000000005  2.20000000000005 0  5 0  L 47 0  L 85 0  C 87.8 0  90 2.20000000000005  90 5  L 90 17  C 90 19.8  87.8 22  85 22  L 5 22  C 2.20000000000005 22  0 19.8  0 17  Z " stroke-width="2" stroke="#797979" fill="none" transform="matrix(1 0 0 1 983 802 )" mask="url(#clip6)" />
  </g>
</svg>