<?xml version="1.0" encoding="utf-8"?>
<svg version="1.1" xmlns:xlink="http://www.w3.org/1999/xlink" width="12px" height="12px" viewBox="838 1070  12 12" xmlns="http://www.w3.org/2000/svg">
  <path d="M 844 1070  C 847.36 1070  850 1072.64  850 1076  C 850 1079.36  847.36 1082  844 1082  C 840.64 1082  838 1079.36  838 1076  C 838 1072.64  840.64 1070  844 1070  Z " fill-rule="nonzero" fill="#ffffff" stroke="none" />
  <path d="M 844 1070.5  C 847.08 1070.5  849.5 1072.92  849.5 1076  C 849.5 1079.08  847.08 1081.5  844 1081.5  C 840.92 1081.5  838.5 1079.08  838.5 1076  C 838.5 1072.92  840.92 1070.5  844 1070.5  Z " stroke-width="1" stroke="#797979" fill="none" />
  <path d="M 844 1079  C 842.32 1079  841 1077.68  841 1076  C 841 1074.32  842.32 1073  844 1073  C 845.68 1073  847 1074.32  847 1076  C 847 1077.68  845.68 1079  844 1079  " fill-rule="nonzero" fill="#797979" stroke="none" />
</svg>