<?xml version="1.0" encoding="utf-8"?>
<svg version="1.1" xmlns:xlink="http://www.w3.org/1999/xlink" width="12px" height="12px" viewBox="292 728  12 12" xmlns="http://www.w3.org/2000/svg">
  <path d="M 298 728  C 301.36 728  304 730.64  304 734  C 304 737.36  301.36 740  298 740  C 294.64 740  292 737.36  292 734  C 292 730.64  294.64 728  298 728  Z " fill-rule="nonzero" fill="#ffffff" stroke="none" />
  <path d="M 298 728.5  C 301.08 728.5  303.5 730.92  303.5 734  C 303.5 737.08  301.08 739.5  298 739.5  C 294.92 739.5  292.5 737.08  292.5 734  C 292.5 730.92  294.92 728.5  298 728.5  Z " stroke-width="1" stroke="#797979" fill="none" />
  <path d="M 298 737  C 296.32 737  295 735.68  295 734  C 295 732.32  296.32 731  298 731  C 299.68 731  301 732.32  301 734  C 301 735.68  299.68 737  298 737  " fill-rule="nonzero" fill="#797979" stroke="none" />
</svg>