<?xml version="1.0" encoding="utf-8"?>
<svg version="1.1" xmlns:xlink="http://www.w3.org/1999/xlink" width="12px" height="12px" viewBox="298 976  12 12" xmlns="http://www.w3.org/2000/svg">
  <path d="M 304 976  C 307.36 976  310 978.64  310 982  C 310 985.36  307.36 988  304 988  C 300.64 988  298 985.36  298 982  C 298 978.64  300.64 976  304 976  Z " fill-rule="nonzero" fill="#ffffff" stroke="none" />
  <path d="M 304 976.5  C 307.08 976.5  309.5 978.92  309.5 982  C 309.5 985.08  307.08 987.5  304 987.5  C 300.92 987.5  298.5 985.08  298.5 982  C 298.5 978.92  300.92 976.5  304 976.5  Z " stroke-width="1" stroke="#797979" fill="none" />
  <path d="M 304 985  C 302.32 985  301 983.68  301 982  C 301 980.32  302.32 979  304 979  C 305.68 979  307 980.32  307 982  C 307 983.68  305.68 985  304 985  " fill-rule="nonzero" fill="#797979" stroke="none" />
</svg>