<?xml version="1.0" encoding="utf-8"?>
<svg version="1.1" xmlns:xlink="http://www.w3.org/1999/xlink" width="12px" height="12px" viewBox="816 890  12 12" xmlns="http://www.w3.org/2000/svg">
  <path d="M 822 890  C 825.36 890  828 892.64  828 896  C 828 899.36  825.36 902  822 902  C 818.64 902  816 899.36  816 896  C 816 892.64  818.64 890  822 890  Z " fill-rule="nonzero" fill="#ffffff" stroke="none" />
  <path d="M 822 890.5  C 825.08 890.5  827.5 892.92  827.5 896  C 827.5 899.08  825.08 901.5  822 901.5  C 818.92 901.5  816.5 899.08  816.5 896  C 816.5 892.92  818.92 890.5  822 890.5  Z " stroke-width="1" stroke="#797979" fill="none" />
  <path d="M 822 899  C 820.32 899  819 897.68  819 896  C 819 894.32  820.32 893  822 893  C 823.68 893  825 894.32  825 896  C 825 897.68  823.68 899  822 899  " fill-rule="nonzero" fill="#797979" stroke="none" />
</svg>