<?xml version="1.0" encoding="utf-8"?>
<svg version="1.1" xmlns:xlink="http://www.w3.org/1999/xlink" width="65px" height="48px" xmlns="http://www.w3.org/2000/svg">
  <g transform="matrix(1 0 0 1 -224 -302 )">
    <path d="M 224 302  L 289 302  L 289 350  L 224 350  L 224 302  " fill-rule="nonzero" fill="#cccccc" stroke="none" />
    <path d="M 227 305  L 286 305  L 286 347  L 227 347  L 227 305  " fill-rule="nonzero" fill="#ffffff" stroke="none" />
    <path d="M 261.4 316.4  C 259.384 316.4  257.8 314.816  257.8 312.8  C 257.8 310.784  259.384 309.2  261.4 309.2  C 263.416 309.2  265 310.784  265 312.8  C 265 314.816  263.416 316.4  261.4 316.4  " fill-rule="nonzero" fill="#cccccc" stroke="none" />
    <path d="M 228 346  L 228 324  L 242.25 314  L 262.2 328.276923076923  L 273.6 320  L 285 328.276923076923  L 285 346  L 228 346  " fill-rule="nonzero" fill="#169bd5" stroke="none" />
  </g>
</svg>