<?xml version="1.0" encoding="utf-8"?>
<svg version="1.1" xmlns:xlink="http://www.w3.org/1999/xlink" width="12px" height="12px" viewBox="441 691  12 12" xmlns="http://www.w3.org/2000/svg">
  <path d="M 447 691  C 450.36 691  453 693.64  453 697  C 453 700.36  450.36 703  447 703  C 443.64 703  441 700.36  441 697  C 441 693.64  443.64 691  447 691  Z " fill-rule="nonzero" fill="#ffffff" stroke="none" />
  <path d="M 447 691.5  C 450.08 691.5  452.5 693.92  452.5 697  C 452.5 700.08  450.08 702.5  447 702.5  C 443.92 702.5  441.5 700.08  441.5 697  C 441.5 693.92  443.92 691.5  447 691.5  Z " stroke-width="1" stroke="#797979" fill="none" />
  <path d="M 447 700  C 445.32 700  444 698.68  444 697  C 444 695.32  445.32 694  447 694  C 448.68 694  450 695.32  450 697  C 450 698.68  448.68 700  447 700  " fill-rule="nonzero" fill="#797979" stroke="none" />
</svg>